<svg width="43" height="43" viewBox="0 0 43 43" fill="none" xmlns="http://www.w3.org/2000/svg">
<mask id="mask0_201_502" style="mask-type:luminance" maskUnits="userSpaceOnUse" x="1" y="1" width="41" height="40">
<path d="M1.7937 1.46777H41.3157V40.9898H1.7937V1.46777Z" fill="white"/>
</mask>
<g mask="url(#mask0_201_502)">
<path d="M41.3157 35.5007C41.3157 38.5329 38.8588 40.9898 35.8266 40.9898H7.2829C4.25179 40.9898 1.7937 38.5329 1.7937 35.5007V6.95698C1.7937 3.92477 4.25179 1.46777 7.2829 1.46777H35.8266C38.8588 1.46777 41.3157 3.92477 41.3157 6.95698V35.5007Z" fill="#673AB7"/>
</g>
<path d="M31.4685 22.9853C30.7549 21.9972 29.723 21.3165 28.3946 20.9543C28.3946 20.9543 29.5144 20.548 30.5244 19.0331C31.1282 18.067 31.4356 16.9032 31.4356 15.542C31.4356 13.1816 30.5793 11.3702 28.8667 10.1296C27.1541 8.88911 25.2219 8.05469 21.9393 8.05469H11.6746V34.4027H23.125C26.2318 34.3807 28.5703 33.7111 30.1621 32.4266C31.743 31.1202 32.5335 29.188 32.5335 26.6081C32.5335 25.181 32.1822 23.9733 31.4685 22.9853ZM18.2616 12.4461C18.2616 12.4461 22.8396 12.4461 22.9274 12.4461C24.5961 12.4461 25.9465 13.7963 25.9465 15.4651C25.9465 17.1338 24.5961 18.4841 22.9274 18.4841C22.8396 18.4841 18.2616 18.4841 18.2616 18.4841V12.4461ZM23.7508 30.0114H18.2616V23.4244H23.7508C25.5732 23.4244 27.0443 24.8955 27.0443 26.7179C27.0443 28.5403 25.5732 30.0114 23.7508 30.0114Z" fill="white"/>
</svg>
