<svg width="42" height="42" viewBox="0 0 42 42" fill="none" xmlns="http://www.w3.org/2000/svg">
<mask id="mask0_201_43" style="mask-type:luminance" maskUnits="userSpaceOnUse" x="3" y="1" width="36" height="40">
<path d="M3.1687 1.07715H38.8267V40.9141H3.1687V1.07715Z" fill="white"/>
</mask>
<g mask="url(#mask0_201_43)">
<path d="M38.8214 1.07715H3.17407L6.31937 36.7208L20.9977 40.9141L35.6761 36.7208L38.8214 1.07715Z" fill="#0277BD"/>
</g>
<path d="M20.998 4.22266V37.6647L32.7407 34.31L35.3618 4.22266H20.998Z" fill="#039BE5"/>
<path d="M30.5389 9.46387H20.998V13.6572H26.1355L25.8209 17.8505H20.998V22.044H25.6113L25.2967 26.7615L20.998 28.2291V32.6322L29.2808 29.9065L30.0147 17.8505L30.5389 9.46387Z" fill="white"/>
<path d="M20.9981 9.46387V13.6572H11.6669L11.3523 9.46387H20.9981ZM16.1752 17.8505L16.3849 22.044H20.9981V17.8505H16.1752ZM16.5945 24.1406H12.4008L12.7153 29.9065L20.9981 32.6322V28.2291L16.6994 26.7615L16.5945 24.1406Z" fill="#EEEEEE"/>
</svg>
