<svg width="42" height="43" viewBox="0 0 42 43" fill="none" xmlns="http://www.w3.org/2000/svg">
<mask id="mask0_201_605" style="mask-type:luminance" maskUnits="userSpaceOnUse" x="3" y="1" width="36" height="41">
<path d="M3.323 1.71289H38.687V41.8649H3.323V1.71289Z" fill="white"/>
</mask>
<g mask="url(#mask0_201_605)">
<path d="M6.53332 37.8382L3.31299 1.73145H38.697L35.4742 37.8332L20.9824 41.8474L6.53332 37.8382Z" fill="#E44D26"/>
</g>
<path d="M32.7138 35.5337L35.469 4.68359H21.0049V38.7794L32.7138 35.5337Z" fill="#F16529"/>
<path d="M20.9897 9.11133H9.89648L11.0916 22.5029H21.0048V18.0749H15.1434L14.7383 13.5405H21.0048V9.11133H20.9897ZM21.0048 29.561L20.986 29.566L16.0525 28.2347L15.7391 24.7031H11.2897L11.9105 31.6559L20.9847 34.1632L21.0048 34.1569V29.561Z" fill="#EBEBEB"/>
<path d="M20.9898 22.5029H26.4449L25.9433 28.2446L21.0024 29.5772V34.1845L30.0841 31.6684L31.3006 18.0724H21.0049L20.9898 22.5029ZM31.9803 10.2998L32.0856 9.11133H20.9873V13.5392H31.6868L31.7746 12.5438L31.9803 10.2998Z" fill="white"/>
</svg>
