<svg width="43" height="42" viewBox="0 0 43 42" fill="none" xmlns="http://www.w3.org/2000/svg">
<mask id="mask0_201_78" style="mask-type:luminance" maskUnits="userSpaceOnUse" x="1" y="1" width="41" height="40">
<path d="M1.95923 1.28613H41.3972V40.7241H1.95923V1.28613Z" fill="white"/>
</mask>
<g mask="url(#mask0_201_78)">
<path d="M1.95923 1.28613H41.3972V40.7241H1.95923V1.28613Z" fill="#FFD600"/>
</g>
<path d="M27.7452 30.8059C28.5033 32.0372 29.3271 33.2171 31.0722 33.2171C32.5381 33.2171 33.3071 32.4886 33.3071 31.4807C33.3071 30.2746 32.5117 29.8462 30.8992 29.1441L30.0151 28.7671C27.4636 27.6849 25.7668 26.3286 25.7668 23.4639C25.7668 20.8237 27.7879 18.8146 30.9462 18.8146C33.1953 18.8146 34.8112 19.5934 35.9768 21.6333L33.2227 23.3938C32.6169 22.3114 31.9618 21.8853 30.9462 21.8853C29.9099 21.8853 29.2537 22.5392 29.2537 23.3938C29.2537 24.4498 29.911 24.8771 31.4282 25.5311L32.3123 25.908C35.3195 27.1885 37.0153 28.4966 37.0153 31.4369C37.0153 34.6051 34.5132 36.3415 31.1544 36.3415C27.869 36.3415 26.0033 34.6928 24.9648 32.6518L27.7452 30.8059ZM15.0527 30.8957C15.607 31.8883 16.4495 32.6518 17.6611 32.6518C18.8201 32.6518 19.4873 32.1939 19.4873 30.4137V18.8135H23.1386V30.9747C23.1386 34.6631 20.9991 36.3415 17.8747 36.3415C15.0516 36.3415 13.014 34.4287 12.1836 32.6518L15.0527 30.8957Z" fill="#000001"/>
</svg>
