<svg width="42" height="42" viewBox="0 0 42 42" fill="none" xmlns="http://www.w3.org/2000/svg">
<path d="M21 8.36719C15.4 8.36719 11.9 11.1672 10.5 16.7672C12.6 13.9672 15.05 12.9172 17.85 13.6172C19.4476 14.0166 20.5894 15.1755 21.8533 16.4585C23.9122 18.5484 26.2952 20.9672 31.5 20.9672C37.1 20.9672 40.6 18.1672 42 12.5672C39.9 15.3672 37.45 16.4172 34.65 15.7172C33.0524 15.3178 31.9106 14.1588 30.6467 12.8759C28.5878 10.786 26.2048 8.36719 21 8.36719ZM10.5 20.9672C4.9 20.9672 1.4 23.7672 0 29.3672C2.1 26.5672 4.55 25.5172 7.35 26.2172C8.94756 26.6166 10.0894 27.7755 11.3533 29.0585C13.4122 31.1484 15.7952 33.5672 21 33.5672C26.6 33.5672 30.1 30.7672 31.5 25.1672C29.4 27.9672 26.95 29.0172 24.15 28.3172C22.5524 27.9178 21.4106 26.7588 20.1467 25.4759C18.0878 23.386 15.7048 20.9672 10.5 20.9672Z" fill="url(#paint0_linear_335_247)"/>
<path d="M21 8.36719C15.4 8.36719 11.9 11.1672 10.5 16.7672C12.6 13.9672 15.05 12.9172 17.85 13.6172C19.4476 14.0166 20.5894 15.1755 21.8533 16.4585C23.9122 18.5484 26.2952 20.9672 31.5 20.9672C37.1 20.9672 40.6 18.1672 42 12.5672C39.9 15.3672 37.45 16.4172 34.65 15.7172C33.0524 15.3178 31.9106 14.1588 30.6467 12.8759C28.5878 10.786 26.2048 8.36719 21 8.36719ZM10.5 20.9672C4.9 20.9672 1.4 23.7672 0 29.3672C2.1 26.5672 4.55 25.5172 7.35 26.2172C8.94756 26.6166 10.0894 27.7755 11.3533 29.0585C13.4122 31.1484 15.7952 33.5672 21 33.5672C26.6 33.5672 30.1 30.7672 31.5 25.1672C29.4 27.9672 26.95 29.0172 24.15 28.3172C22.5524 27.9178 21.4106 26.7588 20.1467 25.4759C18.0878 23.386 15.7048 20.9672 10.5 20.9672Z" fill="url(#paint1_linear_335_247)"/>
<defs>
<linearGradient id="paint0_linear_335_247" x1="-1.16667" y1="16.4312" x2="35.1072" y2="37.3459" gradientUnits="userSpaceOnUse">
<stop stop-color="#2298BD"/>
<stop offset="1" stop-color="#0ED7B5"/>
</linearGradient>
<linearGradient id="paint1_linear_335_247" x1="-1.16667" y1="16.4312" x2="35.1072" y2="37.3459" gradientUnits="userSpaceOnUse">
<stop stop-color="#2298BD"/>
<stop offset="1" stop-color="#0ED7B5"/>
</linearGradient>
</defs>
</svg>
