<svg width="42" height="43" viewBox="0 0 42 43" fill="none" xmlns="http://www.w3.org/2000/svg">
<mask id="mask0_201_477" style="mask-type:luminance" maskUnits="userSpaceOnUse" x="0" y="1" width="42" height="41">
<path d="M0.970459 1.20215H41.0385V41.2701H0.970459V1.20215Z" fill="white"/>
</mask>
<g mask="url(#mask0_201_477)">
<path d="M41.0385 21.2361C41.0385 21.5641 41.0304 21.8916 41.0143 22.2192C40.9982 22.5467 40.9741 22.8735 40.942 23.1998C40.9098 23.5261 40.8697 23.8514 40.8216 24.1757C40.7734 24.5 40.7174 24.823 40.6535 25.1446C40.5895 25.4661 40.5177 25.7859 40.4381 26.104C40.3584 26.4221 40.271 26.7379 40.1758 27.0517C40.0807 27.3654 39.9777 27.6767 39.8674 27.9853C39.7569 28.2941 39.6389 28.5999 39.5134 28.9028C39.388 29.2058 39.2551 29.5053 39.115 29.8017C38.9748 30.0981 38.8274 30.3909 38.6729 30.6801C38.5183 30.9692 38.3567 31.2545 38.1881 31.5357C38.0196 31.8169 37.8443 32.0938 37.662 32.3665C37.4799 32.639 37.2912 32.907 37.0959 33.1704C36.9006 33.4338 36.6989 33.6921 36.491 33.9455C36.2829 34.1991 36.0689 34.4472 35.8486 34.6901C35.6284 34.9331 35.4025 35.1705 35.1706 35.4023C34.9388 35.6342 34.7014 35.8601 34.4585 36.0803C34.2155 36.3006 33.9674 36.5146 33.7138 36.7227C33.4604 36.9306 33.2021 37.1323 32.9387 37.3276C32.6753 37.5228 32.4073 37.7116 32.1347 37.8937C31.8621 38.076 31.5852 38.2513 31.304 38.4198C31.0228 38.5884 30.7375 38.75 30.4484 38.9046C30.1593 39.0591 29.8665 39.2065 29.57 39.3467C29.2736 39.4868 28.9741 39.6197 28.6711 39.7451C28.3682 39.8706 28.0624 39.9886 27.7537 40.0991C27.445 40.2094 27.1337 40.3123 26.82 40.4075C26.5062 40.5027 26.1904 40.5901 25.8723 40.6698C25.5542 40.7494 25.2344 40.8212 24.9129 40.8851C24.5913 40.9491 24.2683 41.0051 23.944 41.0533C23.6197 41.1014 23.2944 41.1415 22.9681 41.1737C22.6418 41.2058 22.315 41.2299 21.9874 41.246C21.6599 41.2621 21.3324 41.2701 21.0045 41.2701C20.6766 41.2701 20.3489 41.2621 20.0214 41.246C19.6939 41.2299 19.3671 41.2058 19.0407 41.1737C18.7145 41.1415 18.3892 41.1014 18.0649 41.0533C17.7405 41.0051 17.4176 40.9491 17.0961 40.8851C16.7744 40.8212 16.4547 40.7494 16.1366 40.6698C15.8186 40.5901 15.5027 40.5027 15.1889 40.4075C14.8751 40.3123 14.5639 40.2094 14.2551 40.0991C13.9465 39.9886 13.6407 39.8706 13.3378 39.7451C13.0348 39.6197 12.7352 39.4868 12.4388 39.3467C12.1425 39.2065 11.8497 39.0591 11.5605 38.9046C11.2713 38.75 10.9861 38.5884 10.7049 38.4198C10.4237 38.2513 10.1468 38.076 9.87413 37.8937C9.60157 37.7116 9.3336 37.5228 9.07022 37.3276C8.80685 37.1323 8.54851 36.9306 8.29497 36.7227C8.04155 36.5146 7.79338 36.3006 7.55046 36.0803C7.30754 35.8601 7.07008 35.6342 6.83832 35.4023C6.60644 35.1705 6.38036 34.9331 6.16019 34.6901C5.94002 34.4472 5.72597 34.1991 5.51794 33.9455C5.30991 33.6921 5.10833 33.4338 4.91299 33.1704C4.71765 32.907 4.52897 32.639 4.34676 32.3665C4.16465 32.0938 3.98932 31.8169 3.82066 31.5357C3.65211 31.2545 3.49057 30.9692 3.33602 30.6801C3.18147 30.3909 3.03415 30.0981 2.89393 29.8017C2.75371 29.5053 2.62093 29.2058 2.49547 28.9028C2.37002 28.5999 2.25201 28.2941 2.14154 27.9853C2.03107 27.6767 1.92826 27.3654 1.8331 27.0517C1.73794 26.7379 1.65055 26.4221 1.57082 26.104C1.49119 25.7859 1.41933 25.4661 1.35535 25.1446C1.29147 24.823 1.23537 24.5 1.18724 24.1757C1.13922 23.8514 1.09908 23.5261 1.06693 23.1998C1.03477 22.8735 1.01071 22.5467 0.994631 22.2192C0.978443 21.8916 0.970459 21.5641 0.970459 21.2361C0.970459 20.9082 0.978443 20.5806 0.994631 20.2531C1.01071 19.9256 1.03477 19.5988 1.06693 19.2724C1.09908 18.9462 1.13922 18.6209 1.18724 18.2966C1.23537 17.9722 1.29147 17.6493 1.35535 17.3277C1.41933 17.0061 1.49119 16.6864 1.57082 16.3683C1.65055 16.0502 1.73794 15.7344 1.8331 15.4206C1.92826 15.1068 2.03107 14.7956 2.14154 14.4868C2.25201 14.1782 2.37002 13.8724 2.49547 13.5695C2.62093 13.2665 2.75371 12.9669 2.89393 12.6704C3.03415 12.3741 3.18147 12.0814 3.33602 11.7922C3.49057 11.503 3.65211 11.2178 3.82066 10.9366C3.98932 10.6554 4.16465 10.3785 4.34676 10.1058C4.52897 9.83326 4.71765 9.56529 4.91299 9.30191C5.10833 9.03854 5.30991 8.78019 5.51794 8.52666C5.72597 8.27324 5.94002 8.02507 6.16019 7.78215C6.38036 7.53923 6.60644 7.30177 6.83832 7.07001C7.07008 6.83813 7.30754 6.61205 7.55046 6.39188C7.79338 6.17171 8.04155 5.95766 8.29497 5.74963C8.54851 5.5416 8.80685 5.34002 9.07022 5.14468C9.3336 4.94934 9.60157 4.76066 9.87413 4.57844C10.1468 4.39634 10.4237 4.22101 10.7049 4.05235C10.9861 3.8838 11.2713 3.72226 11.5605 3.56771C11.8497 3.41316 12.1425 3.26584 12.4388 3.12562C12.7352 2.9854 13.0348 2.85262 13.3378 2.72716C13.6407 2.60171 13.9465 2.4837 14.2551 2.37323C14.5639 2.26276 14.8751 2.15995 15.1889 2.06479C15.5027 1.96963 15.8186 1.88224 16.1366 1.80251C16.4547 1.72288 16.7744 1.65102 17.0961 1.58704C17.4176 1.52316 17.7405 1.46705 18.0649 1.41893C18.3892 1.37091 18.7145 1.33077 19.0407 1.29862C19.3671 1.26646 19.6939 1.2424 20.0214 1.22632C20.3489 1.21013 20.6766 1.20215 21.0045 1.20215C21.3324 1.20215 21.6599 1.21013 21.9874 1.22632C22.315 1.2424 22.6418 1.26646 22.9681 1.29862C23.2944 1.33077 23.6197 1.37091 23.944 1.41893C24.2683 1.46705 24.5913 1.52316 24.9129 1.58704C25.2344 1.65102 25.5542 1.72288 25.8723 1.80251C26.1904 1.88224 26.5062 1.96963 26.82 2.06479C27.1337 2.15995 27.445 2.26276 27.7537 2.37323C28.0624 2.4837 28.3682 2.60171 28.6711 2.72716C28.9741 2.85262 29.2736 2.9854 29.57 3.12562C29.8665 3.26584 30.1593 3.41316 30.4484 3.56771C30.7375 3.72226 31.0228 3.8838 31.304 4.05235C31.5852 4.22101 31.8621 4.39634 32.1347 4.57844C32.4073 4.76066 32.6753 4.94934 32.9387 5.14468C33.2021 5.34002 33.4604 5.5416 33.7138 5.74963C33.9674 5.95766 34.2155 6.17171 34.4585 6.39188C34.7014 6.61205 34.9388 6.83813 35.1706 7.07001C35.4025 7.30177 35.6284 7.53923 35.8486 7.78215C36.0689 8.02507 36.2829 8.27324 36.491 8.52666C36.6989 8.78019 36.9006 9.03854 37.0959 9.30191C37.2912 9.56529 37.4799 9.83326 37.662 10.1058C37.8443 10.3785 38.0196 10.6554 38.1881 10.9366C38.3567 11.2178 38.5183 11.503 38.6729 11.7922C38.8274 12.0814 38.9748 12.3741 39.115 12.6704C39.2551 12.9669 39.388 13.2665 39.5134 13.5695C39.6389 13.8724 39.7569 14.1782 39.8674 14.4868C39.9777 14.7956 40.0807 15.1068 40.1758 15.4206C40.271 15.7344 40.3584 16.0502 40.4381 16.3683C40.5177 16.6864 40.5895 17.0061 40.6535 17.3277C40.7174 17.6493 40.7734 17.9722 40.8216 18.2966C40.8697 18.6209 40.9098 18.9462 40.942 19.2724C40.9741 19.5988 40.9982 19.9256 41.0143 20.2531C41.0304 20.5806 41.0385 20.9082 41.0385 21.2361Z" fill="white"/>
</g>
<path d="M3.82129 21.2357C3.82129 28.0399 7.77323 33.9151 13.5071 36.7009L5.30802 14.2406C4.35373 16.3801 3.82129 18.7398 3.82129 21.2357ZM32.6058 20.37C32.6058 18.2474 31.8425 16.7734 31.1909 15.6325C30.3188 14.2048 29.4996 13.0165 29.4996 11.6025C29.4996 10.0293 30.7026 8.55199 32.3887 8.55199C32.4646 8.55199 32.5331 8.55834 32.609 8.56041C29.5523 5.75254 25.4791 4.05176 21.0041 4.05176C14.9992 4.05176 9.71649 7.13493 6.64393 11.8006C7.04884 11.8092 7.42738 11.8154 7.75321 11.8154C9.54565 11.8154 12.3325 11.6025 12.3325 11.6025C13.2562 11.5402 13.3691 12.9047 12.4391 13.0165C12.4391 13.0165 11.5111 13.1282 10.4768 13.1778L16.7357 31.7957L20.4958 20.5197L17.8177 13.1778C16.894 13.1282 16.0156 13.0165 16.0156 13.0165C15.0899 12.9553 15.1963 11.5392 16.1211 11.6025C16.1211 11.6025 18.9638 11.8154 20.6508 11.8154C22.4497 11.8154 25.2312 11.6025 25.2312 11.6025C26.156 11.5402 26.2667 12.9047 25.342 13.0165C25.342 13.0165 24.4068 13.1282 23.3734 13.1778L29.5807 31.6501L31.2984 25.9268C32.1715 23.6935 32.6058 21.8472 32.6058 20.37ZM21.3046 22.7351L16.1495 37.7184C17.6911 38.1771 19.3181 38.4196 21.0041 38.4196C23.0033 38.4196 24.9224 38.0715 26.7127 37.4453C26.6716 37.3694 26.622 37.2914 26.5873 37.208L21.3046 22.7351ZM36.0855 12.9869C36.1614 13.5341 36.2025 14.1226 36.2025 14.7531C36.2025 16.5013 35.8724 18.4615 34.893 20.9162L29.6461 36.0956C34.7548 33.1179 38.188 27.5769 38.188 21.2368C38.188 18.2495 37.4235 15.4394 36.0855 12.9869Z" fill="#01579B"/>
<mask id="mask1_201_477" style="mask-type:luminance" maskUnits="userSpaceOnUse" x="0" y="1" width="42" height="41">
<path d="M0.970459 1.20215H41.0385V41.2701H0.970459V1.20215Z" fill="white"/>
</mask>
<g mask="url(#mask1_201_477)">
<path d="M0.970459 21.2361C0.970459 32.2791 9.95518 41.2701 21.0045 41.2701C32.0537 41.2701 41.0385 32.2791 41.0385 21.2361C41.0385 10.1932 32.0537 1.20215 21.0045 1.20215C9.95518 1.20215 0.970459 10.1932 0.970459 21.2361ZM1.88888 21.2361C1.88888 10.7014 10.4613 2.12691 21.0034 2.12691C31.5466 2.12691 40.1189 10.7014 40.1189 21.2361C40.1189 31.7708 31.5466 40.3476 21.0045 40.3476C10.4634 40.3476 1.88888 31.7708 1.88888 21.2361Z" fill="#01579B"/>
</g>
</svg>
